<?xml version="1.0" encoding="utf-8"?>
<!-- Generator: Adobe Illustrator 26.3.1, SVG Export Plug-In . SVG Version: 6.00 Build 0)  -->
<svg version="1.1" id="Ebene_1" xmlns="http://www.w3.org/2000/svg" xmlns:xlink="http://www.w3.org/1999/xlink" x="0px" y="0px"
	 viewBox="0 0 1000 1000" style="enable-background:new 0 0 1000 1000;" xml:space="preserve">
<style type="text/css">
	.st0{fill-rule:evenodd;clip-rule:evenodd;fill:#FFFFFF;}
</style>
<path id="Ellipse-Copy-Difference-Union-2" class="st0" d="M500,0C223.9,0,0,223.9,0,500s223.9,500,500,500s500-223.9,500-500
	S776.1,0,500,0z M233.6,154.6h311.8c10.8-17.2,29.9-28.6,51.7-28.6c33.7,0,61,27.3,61,61s-27.3,61-61,61
	c-22.2,0-41.6-11.8-52.3-29.6H200v596.4c0,0.6,0,1.1-0.1,1.7c30.7,29.1,65.6,53.8,103.6,73V631.9c0-0.5,0-1,0-1.5
	c0-0.5,0.1-1,0.1-1.5c0-0.5,0.1-1,0.2-1.5c0.1-0.5,0.2-1,0.3-1.5s0.2-1,0.3-1.5s0.3-1,0.4-1.5s0.3-1,0.5-1.5s0.4-1,0.5-1.4
	c0.2-0.5,0.4-1,0.6-1.4s0.5-0.9,0.7-1.4c0.2-0.5,0.5-0.9,0.8-1.3s0.5-0.9,0.8-1.3c0.3-0.4,0.6-0.8,0.9-1.3c0.3-0.4,0.6-0.8,0.9-1.2
	c0.3-0.4,0.6-0.8,1-1.2c0.3-0.4,0.7-0.8,1-1.1s0.7-0.7,1.1-1.1c0.4-0.3,0.8-0.7,1.2-1c0.4-0.3,0.8-0.7,1.2-1
	c0.4-0.3,0.8-0.6,1.2-0.9c0.4-0.3,0.9-0.6,1.3-0.8c0.4-0.3,0.9-0.5,1.3-0.8c0.5-0.2,0.9-0.5,1.4-0.7s0.9-0.4,1.4-0.7
	c0.5-0.2,1-0.4,1.4-0.6c0.5-0.2,1-0.3,1.5-0.5c0.5-0.2,1-0.3,1.5-0.4s1-0.3,1.5-0.4s1-0.2,1.5-0.3s1-0.2,1.5-0.2s1-0.1,1.5-0.2
	c0.5,0,1-0.1,1.5-0.1h107.8c10.8-17.2,29.9-28.6,51.7-28.6c33.7,0,61,27.3,61,61s-27.3,61-61,61c-22.2,0-41.6-11.8-52.3-29.5h-74.6
	v247.5c0,1.4-0.1,2.8-0.3,4.2C409,929,453.7,936.2,500,936.2c41.5,0,81.7-5.8,119.7-16.6V589.1c-17-10.8-28.3-29.8-28.3-51.5
	c0-33.7,27.3-61,61-61s61,27.3,61,61c0,22.3-12,41.8-29.9,52.5v305.7c29.3-13.6,56.9-30.4,82.3-50V538c0-0.5,0-1,0-1.5
	c0-0.5,0.1-1,0.1-1.5c0-0.5,0.1-1,0.2-1.5c0.1-0.5,0.2-1,0.3-1.5c0.1-0.5,0.2-1,0.3-1.5s0.3-1,0.4-1.5c0.2-0.5,0.3-1,0.5-1.5
	s0.3-1,0.5-1.5c0.2-0.5,0.4-1,0.6-1.4s0.5-0.9,0.7-1.4s0.5-0.9,0.8-1.3c0.3-0.4,0.5-0.9,0.8-1.3s0.6-0.9,0.9-1.3
	c0.3-0.4,0.6-0.8,0.9-1.2c0.3-0.4,0.7-0.8,1-1.2c0.3-0.4,0.7-0.8,1.1-1.1s0.7-0.7,1.1-1.1c0.4-0.3,0.8-0.7,1.2-1
	c0.4-0.3,0.8-0.7,1.2-1c0.4-0.3,0.8-0.6,1.3-0.9c0.4-0.3,0.9-0.6,1.3-0.8s0.9-0.5,1.3-0.8s0.9-0.5,1.4-0.7c0.5-0.2,0.9-0.4,1.4-0.6
	c0.5-0.2,1-0.4,1.4-0.6c0.5-0.2,1-0.4,1.5-0.5c0.5-0.2,1-0.3,1.5-0.4s1-0.2,1.5-0.4c0.5-0.1,1-0.2,1.5-0.3c0.5-0.1,1-0.1,1.5-0.2
	s1-0.1,1.5-0.1c0.5,0,1-0.1,1.5-0.1h139c0-2,0-4.1,0-6.1c0-109.2-40.1-209-106.4-285.5v135.7c0,0.5,0,1,0,1.6c0,0.5-0.1,1-0.1,1.6
	s-0.1,1-0.2,1.5s-0.2,1-0.3,1.5c-0.1,0.5-0.2,1-0.3,1.5c-0.1,0.5-0.3,1-0.4,1.5c-0.2,0.5-0.3,1-0.5,1.5c-0.2,0.5-0.4,1-0.6,1.5
	c-0.2,0.5-0.4,1-0.6,1.4c-0.2,0.5-0.5,0.9-0.7,1.4c-0.2,0.5-0.5,0.9-0.8,1.4c-0.3,0.5-0.5,0.9-0.8,1.3c-0.3,0.4-0.6,0.9-0.9,1.3
	s-0.6,0.8-1,1.2c-0.3,0.4-0.7,0.8-1,1.2c-0.3,0.4-0.7,0.8-1.1,1.1s-0.8,0.7-1.1,1.1c-0.4,0.4-0.8,0.7-1.2,1c-0.4,0.3-0.8,0.6-1.2,1
	c-0.4,0.3-0.8,0.6-1.3,0.9c-0.4,0.3-0.9,0.6-1.3,0.8c-0.5,0.3-0.9,0.5-1.4,0.8c-0.5,0.2-0.9,0.5-1.4,0.7c-0.5,0.2-1,0.4-1.4,0.6
	c-0.5,0.2-1,0.4-1.5,0.6c-0.5,0.2-1,0.3-1.5,0.5s-1,0.3-1.5,0.4s-1,0.2-1.5,0.3s-1,0.2-1.5,0.3c-0.5,0.1-1,0.1-1.6,0.2
	s-1,0.1-1.6,0.1c-0.5,0-1,0-1.6,0l0,0c-0.3,0-0.6,0-0.9,0H367.4v64.8c17.8,10.6,29.7,30.1,29.7,52.4c0,33.7-27.3,61-61,61
	s-61-27.3-61-61c0-21.7,11.3-40.8,28.4-51.6v-97.5c0-0.5,0-1,0-1.5s0.1-1,0.1-1.5s0.1-1,0.2-1.5c0.1-0.5,0.2-1,0.3-1.5
	c0.1-0.5,0.2-1,0.3-1.5s0.3-1,0.4-1.5s0.3-1,0.5-1.5s0.4-1,0.5-1.4c0.2-0.5,0.4-1,0.6-1.4s0.5-0.9,0.7-1.4c0.2-0.5,0.5-0.9,0.8-1.4
	s0.5-0.9,0.8-1.3c0.3-0.4,0.6-0.9,0.9-1.3c0.3-0.4,0.6-0.8,0.9-1.2c0.3-0.4,0.6-0.8,1-1.2c0.3-0.4,0.7-0.8,1-1.1s0.7-0.7,1.1-1.1
	c0.4-0.4,0.8-0.7,1.2-1c0.4-0.3,0.8-0.6,1.2-1c0.4-0.3,0.8-0.6,1.2-0.9c0.4-0.3,0.9-0.6,1.3-0.8c0.4-0.3,0.9-0.5,1.3-0.8
	c0.5-0.2,0.9-0.5,1.4-0.7s0.9-0.4,1.4-0.6c0.5-0.2,1-0.4,1.4-0.6c0.5-0.2,1-0.4,1.5-0.5s1-0.3,1.5-0.4s1-0.3,1.5-0.4s1-0.2,1.5-0.3
	c0.5-0.1,1-0.2,1.5-0.2s1-0.1,1.5-0.1c0.5,0,1-0.1,1.5-0.1v0H766v-161c0-1,0-2,0.1-2.9C692.5,97.6,600.2,63.8,500,63.8
	S307.3,97.7,233.6,154.6L233.6,154.6z M63.8,500c0-89,26.6-171.7,72.3-240.6v481.3C90.4,671.7,63.8,589,63.8,500L63.8,500z
	 M930.6,569.9h-101v215.7C881.6,725.8,917.4,651.7,930.6,569.9z"/>
</svg>
